<svg width="48" height="48" viewBox="0 0 48 48" fill="none" xmlns="http://www.w3.org/2000/svg">
<path d="M0 24C0 10.7452 10.7452 0 24 0C37.2548 0 48 10.7452 48 24C48 37.2548 37.2548 48 24 48C10.7452 48 0 37.2548 0 24Z" fill="#404040"/>
<path d="M27.7337 26.1332H26.8911L26.5924 25.8452C27.6377 24.6292 28.2671 23.0506 28.2671 21.3332C28.2671 17.5039 25.1631 14.3999 21.3337 14.3999C17.5044 14.3999 14.4004 17.5039 14.4004 21.3332C14.4004 25.1626 17.5044 28.2666 21.3337 28.2666C23.0511 28.2666 24.6297 27.6372 25.8457 26.5919L26.1337 26.8906V27.7332L31.4671 33.0559L33.0564 31.4666L27.7337 26.1332ZM21.3337 26.1332C18.6777 26.1332 16.5337 23.9892 16.5337 21.3332C16.5337 18.6772 18.6777 16.5332 21.3337 16.5332C23.9897 16.5332 26.1337 18.6772 26.1337 21.3332C26.1337 23.9892 23.9897 26.1332 21.3337 26.1332Z" fill="#EEEEEE"/>
</svg>
