<svg width="48" height="48" viewBox="0 0 48 48" fill="none" xmlns="http://www.w3.org/2000/svg">
<path d="M0 24C0 10.7452 10.7452 0 24 0C37.2548 0 48 10.7452 48 24C48 37.2548 37.2548 48 24 48C10.7452 48 0 37.2548 0 24Z" fill="#404040"/>
<g clip-path="url(#clip0_92_4110)">
<path d="M24.0004 18.6666C21.0564 18.6666 18.6671 21.0559 18.6671 23.9999C18.6671 26.9439 21.0564 29.3333 24.0004 29.3333C26.9444 29.3333 29.3338 26.9439 29.3338 23.9999C29.3338 21.0559 26.9444 18.6666 24.0004 18.6666ZM13.3338 25.0666H15.4671C16.0538 25.0666 16.5338 24.5866 16.5338 23.9999C16.5338 23.4133 16.0538 22.9333 15.4671 22.9333H13.3338C12.7471 22.9333 12.2671 23.4133 12.2671 23.9999C12.2671 24.5866 12.7471 25.0666 13.3338 25.0666ZM32.5338 25.0666H34.6671C35.2538 25.0666 35.7338 24.5866 35.7338 23.9999C35.7338 23.4133 35.2538 22.9333 34.6671 22.9333H32.5338C31.9471 22.9333 31.4671 23.4133 31.4671 23.9999C31.4671 24.5866 31.9471 25.0666 32.5338 25.0666ZM22.9338 13.3333V15.4666C22.9338 16.0533 23.4138 16.5333 24.0004 16.5333C24.5871 16.5333 25.0671 16.0533 25.0671 15.4666V13.3333C25.0671 12.7466 24.5871 12.2666 24.0004 12.2666C23.4138 12.2666 22.9338 12.7466 22.9338 13.3333ZM22.9338 32.5333V34.6666C22.9338 35.2533 23.4138 35.7333 24.0004 35.7333C24.5871 35.7333 25.0671 35.2533 25.0671 34.6666V32.5333C25.0671 31.9466 24.5871 31.4666 24.0004 31.4666C23.4138 31.4666 22.9338 31.9466 22.9338 32.5333ZM17.5898 16.0853C17.1738 15.6693 16.4911 15.6693 16.0858 16.0853C15.6698 16.5013 15.6698 17.1839 16.0858 17.5893L17.2164 18.7199C17.6324 19.1359 18.3151 19.1359 18.7204 18.7199C19.1258 18.3039 19.1364 17.6213 18.7204 17.2159L17.5898 16.0853ZM30.7844 29.2799C30.3684 28.8639 29.6858 28.8639 29.2804 29.2799C28.8644 29.6959 28.8644 30.3786 29.2804 30.7839L30.4111 31.9146C30.8271 32.3306 31.5098 32.3306 31.9151 31.9146C32.3311 31.4986 32.3311 30.8159 31.9151 30.4106L30.7844 29.2799ZM31.9151 17.5893C32.3311 17.1733 32.3311 16.4906 31.9151 16.0853C31.4991 15.6693 30.8164 15.6693 30.4111 16.0853L29.2804 17.2159C28.8644 17.6319 28.8644 18.3146 29.2804 18.7199C29.6964 19.1253 30.3791 19.1359 30.7844 18.7199L31.9151 17.5893ZM18.7204 30.7839C19.1364 30.3679 19.1364 29.6853 18.7204 29.2799C18.3044 28.8639 17.6218 28.8639 17.2164 29.2799L16.0858 30.4106C15.6698 30.8266 15.6698 31.5093 16.0858 31.9146C16.5018 32.3199 17.1844 32.3306 17.5898 31.9146L18.7204 30.7839Z" fill="#EEEEEE"/>
</g>
<defs>
<clipPath id="clip0_92_4110">
<rect width="25.6" height="25.6" fill="white" transform="translate(11.2002 11.2)"/>
</clipPath>
</defs>
</svg>
