<svg width="48" height="48" viewBox="0 0 48 48" fill="none" xmlns="http://www.w3.org/2000/svg">
<path d="M0 24C0 10.7452 10.7452 0 24 0C37.2548 0 48 10.7452 48 24C48 37.2548 37.2548 48 24 48C10.7452 48 0 37.2548 0 24Z" fill="#F3F3F3"/>
<path d="M24 15C19.03 15 15 19.03 15 24C15 28.97 19.03 33 24 33C28.97 33 33 28.97 33 24C33 23.54 32.96 23.08 32.9 22.64C31.92 24.01 30.32 24.9 28.5 24.9C25.52 24.9 23.1 22.48 23.1 19.5C23.1 17.69 23.99 16.08 25.36 15.1C24.92 15.04 24.46 15 24 15Z" fill="#131313"/>
</svg>
